<?xml version="1.0" standalone="no"?>
<!DOCTYPE svg PUBLIC "-//W3C//DTD SVG 20010904//EN"
 "http://www.w3.org/TR/2001/REC-SVG-20010904/DTD/svg10.dtd">
<svg version="1.0" xmlns="http://www.w3.org/2000/svg"
 width="2500.000000pt" height="2500.000000pt" viewBox="0 0 2500.000000 2500.000000"
 preserveAspectRatio="xMidYMid meet">
<metadata>
Created by potrace 1.14, written by Peter Selinger 2001-2017
</metadata>
<g transform="translate(0.000000,2500.000000) scale(0.100000,-0.100000)"
fill="#000000" stroke="none">
<path d="M5415 24915 c-5 -1 -30 -8 -55 -16 -36 -10 -260 -133 -475 -260 -16
-10 -46 -26 -65 -37 -19 -11 -127 -72 -239 -137 -112 -64 -218 -125 -235 -135
-33 -18 -205 -118 -574 -331 -122 -71 -224 -129 -226 -129 -2 0 -33 -17 -67
-38 -35 -22 -143 -84 -239 -139 -96 -56 -191 -110 -210 -121 -19 -12 -46 -27
-60 -35 -14 -7 -277 -159 -585 -337 -308 -177 -580 -334 -605 -348 -25 -14
-58 -33 -75 -42 -16 -10 -84 -49 -150 -87 -66 -39 -140 -81 -165 -95 -25 -14
-128 -74 -230 -133 -102 -59 -268 -155 -370 -212 -101 -58 -203 -120 -225
-136 -57 -43 -102 -106 -131 -183 l-24 -64 0 -8053 c0 -7161 2 -8059 15 -8111
18 -69 72 -155 123 -194 32 -25 189 -121 262 -160 28 -15 126 -71 151 -87 9
-5 32 -18 50 -29 33 -18 663 -381 1484 -854 215 -123 405 -233 422 -243 18
-11 50 -29 70 -40 21 -12 83 -47 138 -79 55 -32 116 -66 135 -77 19 -11 80
-46 135 -78 55 -32 188 -109 295 -170 107 -62 230 -133 273 -159 43 -25 80
-46 82 -46 2 0 76 -43 166 -95 89 -52 163 -95 165 -95 2 0 44 -25 94 -55 50
-30 93 -55 95 -55 2 0 28 -14 57 -31 29 -18 68 -40 86 -51 18 -10 93 -53 165
-95 73 -42 152 -87 177 -101 25 -13 50 -27 55 -32 6 -4 30 -19 55 -32 81 -45
116 -66 185 -107 37 -23 69 -41 71 -41 2 0 41 -22 86 -49 46 -27 101 -59 123
-71 22 -12 218 -125 435 -250 217 -125 414 -238 436 -251 23 -13 123 -71 223
-129 101 -58 199 -114 219 -126 65 -36 376 -216 407 -235 17 -10 37 -22 45
-26 8 -4 35 -19 61 -33 25 -15 65 -38 90 -52 24 -14 175 -101 334 -193 311
-180 335 -194 392 -226 57 -32 572 -328 607 -350 17 -10 42 -24 56 -32 14 -7
176 -100 360 -207 783 -451 736 -428 852 -428 99 0 141 17 383 157 57 33 547
315 615 355 25 14 98 56 163 93 65 38 137 79 159 92 56 32 1006 579 1043 601
17 9 167 96 335 192 168 97 321 185 340 195 19 11 91 53 160 93 68 40 138 81
155 90 16 9 134 77 260 150 127 73 253 145 280 160 28 15 75 42 105 60 30 18
69 41 86 50 27 16 381 219 474 273 19 11 53 30 75 42 22 13 108 62 190 110 83
48 170 99 195 113 25 14 99 57 165 95 203 117 464 267 513 294 26 15 75 44
110 65 34 21 64 38 66 38 3 0 37 19 78 43 40 24 93 55 118 69 25 14 115 66
200 115 85 49 182 104 215 123 33 18 67 39 76 46 8 8 18 14 22 14 3 0 56 29
117 65 61 36 130 76 153 88 23 13 177 102 341 197 165 95 315 181 333 191 18
11 48 27 66 37 121 69 1135 654 1197 691 19 11 41 24 49 27 7 4 50 28 95 54
44 26 124 72 176 102 52 30 176 101 275 158 228 130 287 185 330 305 17 48 18
179 19 2637 1 1706 4 2590 11 2597 6 5 26 18 45 29 19 11 76 43 125 72 50 29
108 63 130 75 22 12 234 133 470 270 237 136 531 306 655 377 124 71 232 134
240 139 23 14 180 103 230 131 25 14 83 48 130 75 100 59 609 352 660 380 19
11 70 41 113 67 43 25 80 46 82 46 2 0 52 29 112 64 110 65 672 388 753 434
25 14 99 56 165 95 66 38 138 80 160 92 444 251 503 293 550 391 44 91 42 13
41 2865 l-1 2724 -23 55 c-33 77 -82 140 -144 182 -42 29 -325 194 -803 468
-16 9 -104 60 -195 112 -380 220 -483 278 -490 278 -5 0 -10 3 -12 8 -1 4 -19
15 -38 26 -31 16 -391 223 -430 247 -16 10 -362 209 -420 241 -19 11 -107 62
-195 113 -88 50 -180 103 -205 117 -25 14 -216 124 -425 245 -209 121 -402
232 -430 247 -27 16 -90 52 -140 81 -49 29 -106 62 -125 73 -19 10 -199 114
-400 229 -490 282 -480 278 -589 275 -52 -1 -156 -26 -176 -42 -8 -6 -326
-190 -522 -301 -36 -21 -44 -26 -223 -129 -69 -39 -143 -82 -165 -95 -22 -12
-125 -72 -230 -132 -187 -108 -1161 -670 -1220 -703 -69 -39 -503 -289 -535
-309 -19 -11 -55 -31 -80 -45 -25 -13 -103 -58 -174 -100 -70 -42 -130 -76
-132 -76 -2 0 -41 -22 -86 -49 -79 -46 -317 -183 -386 -222 -18 -11 -155 -89
-305 -176 -149 -86 -348 -201 -442 -254 -93 -54 -193 -114 -221 -135 -83 -62
-137 -150 -152 -248 -4 -28 -7 -1204 -7 -2612 l0 -2561 -55 -30 c-30 -16 -158
-89 -285 -163 -126 -73 -246 -142 -265 -152 -41 -24 -432 -249 -890 -513 -179
-103 -343 -198 -365 -210 -22 -13 -112 -65 -200 -115 -88 -51 -175 -101 -193
-111 -132 -76 -574 -331 -602 -348 -19 -11 -57 -32 -85 -47 -27 -15 -66 -37
-85 -49 -19 -12 -55 -33 -80 -47 -25 -14 -99 -57 -165 -95 -66 -39 -140 -81
-165 -95 -25 -14 -133 -76 -240 -138 -107 -62 -200 -114 -207 -117 -9 -4 -12
1164 -12 5019 0 4655 -1 5027 -16 5073 -23 68 -56 123 -102 168 -38 39 -87 70
-333 211 -74 42 -142 81 -150 86 -8 6 -67 39 -130 75 -63 36 -122 70 -130 75
-8 5 -37 22 -65 38 -27 16 -68 39 -90 51 -22 13 -159 92 -305 176 -146 84
-443 254 -660 379 -217 125 -417 241 -443 257 -27 16 -50 29 -53 29 -2 0 -21
11 -42 23 -20 13 -57 35 -82 49 -25 14 -148 85 -275 158 -126 73 -255 147
-285 163 -30 16 -62 36 -71 43 -8 8 -18 14 -21 14 -3 0 -88 48 -189 106 -101
59 -198 115 -216 125 -49 28 -463 266 -833 479 -392 227 -404 233 -450 248
-34 12 -154 23 -175 17z m185 -911 c58 -33 308 -177 555 -320 248 -142 536
-307 640 -367 105 -61 204 -117 220 -127 17 -9 102 -59 190 -110 88 -51 185
-106 215 -123 30 -17 72 -41 92 -54 21 -13 40 -23 42 -23 3 0 41 -22 86 -50
45 -27 84 -50 87 -50 3 0 29 -14 57 -32 28 -17 65 -39 81 -48 40 -22 160 -91
198 -114 103 -60 1124 -646 1182 -678 134 -74 144 -56 -96 -193 -326 -186
-375 -215 -939 -540 -69 -40 -262 -151 -430 -247 -168 -97 -435 -251 -595
-343 -159 -92 -305 -176 -324 -187 -128 -73 -388 -222 -412 -236 -15 -9 -88
-51 -161 -93 -73 -42 -221 -127 -328 -189 -207 -120 -229 -132 -387 -223
l-102 -58 -43 24 c-48 27 -671 386 -928 535 -91 52 -190 109 -220 125 -30 17
-83 48 -118 69 -34 21 -64 38 -66 38 -3 0 -40 21 -83 46 -64 38 -1019 589
-1088 628 -53 30 -242 138 -255 146 -52 32 -203 120 -206 120 -3 0 -138 77
-174 99 -8 6 -64 38 -125 73 -60 34 -119 68 -130 75 -11 7 -27 15 -35 19 -7 4
-79 46 -160 92 -80 47 -167 98 -195 113 -27 15 -51 31 -52 36 -2 4 97 66 220
136 122 71 229 132 237 137 19 12 254 146 300 172 52 30 446 256 480 276 16 9
80 46 142 82 62 35 122 70 133 76 11 6 63 36 115 66 131 76 946 545 995 573
22 12 213 123 425 245 212 122 402 232 424 244 21 11 48 27 60 33 276 162 343
198 356 194 8 -3 62 -33 120 -67z m13916 -2583 c8 -8 246 -147 374 -219 25
-14 117 -67 205 -117 713 -411 884 -510 914 -527 18 -10 187 -107 375 -215
187 -108 379 -219 426 -245 47 -27 92 -53 100 -58 16 -11 286 -166 353 -204
23 -12 114 -65 202 -116 88 -51 185 -106 215 -123 30 -16 67 -38 82 -49 14
-10 28 -18 31 -18 3 0 41 -21 84 -46 43 -26 92 -55 108 -64 39 -22 233 -133
314 -179 35 -21 63 -41 62 -47 0 -5 -74 -51 -163 -103 -90 -51 -252 -145 -361
-208 -109 -62 -271 -156 -360 -207 -302 -174 -551 -317 -887 -511 -184 -106
-391 -225 -460 -265 -192 -110 -731 -421 -770 -443 -19 -11 -109 -62 -200
-115 -91 -52 -271 -156 -400 -230 -129 -74 -243 -140 -254 -148 -16 -11 -24
-9 -59 13 -22 14 -59 35 -81 47 -23 12 -117 67 -211 121 -93 54 -186 108 -207
119 -20 12 -62 36 -95 55 -32 19 -71 42 -88 51 -221 125 -797 457 -817 471
-15 11 -29 19 -32 19 -3 0 -43 22 -88 49 -100 58 -266 154 -328 189 -25 14
-57 32 -72 41 -15 9 -125 72 -244 141 -119 69 -235 136 -258 149 -23 13 -72
41 -111 63 -38 22 -84 49 -102 59 -17 10 -139 80 -270 155 -131 76 -371 214
-533 307 -162 93 -299 173 -303 177 -5 4 18 22 50 40 32 18 73 41 91 52 17 10
49 28 70 39 20 12 49 30 64 40 14 11 28 19 30 19 3 0 88 48 189 106 101 58
260 149 352 203 92 53 182 104 200 115 18 10 169 97 337 194 168 96 409 235
535 307 127 73 246 142 265 153 32 18 291 168 504 291 49 28 90 51 91 51 2 0
32 17 66 38 35 22 84 50 109 64 57 32 467 268 720 415 107 62 202 113 211 113
8 0 19 -4 25 -9z m-18199 -329 c65 -38 192 -112 283 -164 91 -53 183 -106 205
-118 59 -33 307 -175 410 -235 50 -29 257 -148 460 -265 204 -117 381 -219
395 -228 14 -9 27 -17 30 -17 3 0 37 -19 75 -42 150 -88 372 -217 410 -237 22
-13 117 -67 210 -121 94 -54 184 -106 200 -115 17 -10 57 -33 90 -52 33 -20
80 -47 105 -60 25 -14 144 -83 265 -153 121 -70 310 -179 420 -242 110 -64
201 -117 203 -118 2 -2 3 -2356 4 -5231 0 -2876 4 -5252 8 -5280 5 -28 19 -72
31 -99 24 -51 123 -159 162 -175 12 -6 29 -14 37 -19 8 -6 62 -37 120 -69 58
-33 204 -116 325 -184 121 -69 247 -140 280 -158 33 -18 65 -36 70 -40 6 -4
37 -22 70 -40 33 -18 179 -101 325 -183 403 -229 619 -350 684 -386 32 -18 81
-46 108 -62 27 -16 51 -29 54 -29 3 0 18 -8 32 -19 26 -18 49 -31 177 -101 33
-18 65 -36 70 -40 6 -4 31 -19 58 -34 100 -55 202 -113 472 -266 17 -9 239
-135 495 -280 549 -311 470 -266 760 -431 129 -73 256 -144 282 -159 32 -16
48 -32 49 -45 5 -138 2 -4455 -4 -4455 -4 0 -52 25 -105 56 -53 31 -113 66
-132 76 -19 11 -80 46 -135 78 -55 32 -117 67 -138 79 -21 12 -107 61 -190
110 -168 98 -756 436 -800 460 -16 9 -36 21 -45 26 -9 6 -79 46 -155 90 -76
44 -153 88 -170 98 -37 22 -274 157 -300 172 -28 16 -650 375 -667 385 -8 5
-118 68 -245 141 -126 72 -259 148 -295 169 -191 112 -432 250 -436 250 -2 0
-33 18 -69 40 -36 22 -70 40 -75 40 -6 0 -10 5 -10 10 0 6 -4 10 -9 10 -4 0
-345 194 -757 431 -412 238 -769 443 -794 457 -25 14 -125 72 -222 129 -98 57
-180 103 -183 103 -3 0 -34 17 -68 39 -34 21 -233 136 -442 256 -209 120 -465
268 -570 328 -104 61 -208 120 -230 133 -22 12 -139 79 -260 149 -121 70 -240
139 -265 153 -25 14 -146 84 -270 155 -124 72 -250 144 -280 160 -30 16 -62
36 -71 43 -8 8 -18 14 -21 14 -4 0 -38 18 -77 41 l-71 41 0 7549 c0 4152 2
7549 4 7549 3 0 58 -31 123 -68z m8437 -4811 c1 -2680 -1 -4877 -4 -4881 -3
-5 -134 -82 -290 -173 -157 -90 -409 -235 -560 -322 -151 -87 -292 -169 -312
-182 -21 -12 -40 -23 -42 -23 -3 0 -29 -14 -58 -32 -61 -36 -268 -155 -408
-235 -52 -30 -109 -63 -127 -73 -17 -10 -139 -80 -270 -156 -131 -75 -344
-198 -473 -272 -129 -74 -248 -143 -265 -152 -16 -10 -133 -77 -260 -150 -641
-370 -816 -470 -820 -470 -3 0 -5 2197 -5 4883 l0 4882 97 55 c53 30 121 69
150 85 48 27 224 129 668 385 83 48 263 151 400 230 138 79 282 162 320 185
39 23 77 45 85 49 8 4 24 12 35 19 11 7 56 33 100 58 44 26 125 72 180 104 55
32 109 63 120 69 36 20 360 207 375 216 43 27 503 290 506 290 2 0 21 11 42
23 41 27 536 312 622 360 30 17 82 47 115 68 33 20 64 36 69 35 6 -1 10 -1842
10 -4875z m5602 2153 c82 -48 169 -98 194 -112 25 -14 78 -45 118 -69 41 -24
75 -43 77 -43 1 0 63 -35 136 -78 74 -43 143 -84 154 -90 11 -6 86 -49 167
-97 80 -47 149 -85 153 -85 4 0 19 -8 33 -19 15 -10 47 -29 72 -43 25 -14 133
-76 240 -138 107 -62 209 -121 225 -130 17 -9 314 -180 660 -380 347 -199 648
-373 670 -385 22 -13 81 -46 130 -75 50 -29 104 -60 121 -70 16 -10 88 -51
160 -92 71 -41 149 -86 174 -100 25 -14 92 -53 150 -86 l105 -61 1 -2215 c1
-2018 -1 -2214 -15 -2208 -16 6 -213 118 -497 282 -87 51 -179 104 -204 118
-25 14 -57 32 -72 41 -15 9 -191 110 -390 225 -576 331 -691 397 -723 416
-172 100 -448 258 -477 274 -20 12 -181 104 -357 206 -177 102 -335 193 -353
203 -250 144 -317 183 -338 194 -14 8 -124 71 -245 141 l-220 127 0 2218 c0
1219 0 2217 1 2217 0 0 68 -39 150 -86z m8414 -2129 l0 -2214 -55 -36 c-31
-19 -57 -35 -60 -35 -3 0 -26 -13 -52 -28 -64 -38 -178 -105 -229 -134 -87
-49 -357 -204 -387 -222 -65 -38 -354 -204 -397 -228 -25 -14 -85 -49 -135
-78 -49 -29 -106 -62 -125 -72 -19 -11 -109 -63 -200 -116 -91 -52 -185 -106
-210 -120 -25 -13 -49 -28 -55 -32 -5 -5 -30 -19 -55 -32 -25 -14 -61 -34 -80
-45 -60 -35 -486 -281 -695 -400 -110 -64 -204 -119 -210 -123 -5 -4 -35 -21
-65 -37 -30 -17 -239 -137 -465 -267 -225 -130 -412 -236 -415 -236 -8 0 -6
4414 3 4427 6 9 172 108 337 201 19 10 58 33 86 49 27 17 70 41 95 55 24 14
89 51 144 83 209 121 339 195 342 195 3 0 23 13 46 28 23 15 53 33 67 40 14 6
32 16 40 22 13 8 62 37 230 133 19 10 109 62 200 115 191 110 549 316 600 345
19 10 118 67 220 126 102 59 266 154 365 211 99 57 248 142 330 190 83 48 255
147 382 221 128 74 245 141 260 149 15 8 52 30 82 47 31 18 57 33 59 33 1 0 2
-997 2 -2215z m-8833 -2964 c133 -77 440 -254 493 -284 19 -10 71 -40 115 -66
44 -26 87 -50 95 -54 8 -4 29 -15 45 -26 24 -14 737 -425 870 -501 17 -10 71
-41 120 -70 50 -29 110 -64 134 -78 25 -13 67 -38 93 -53 27 -16 52 -29 55
-29 4 0 14 -6 22 -14 9 -7 43 -28 76 -46 33 -17 116 -65 185 -105 69 -40 145
-84 170 -97 25 -14 189 -109 365 -210 176 -102 392 -226 480 -277 88 -50 167
-95 175 -100 8 -5 72 -43 142 -83 143 -82 141 -76 43 -128 -38 -20 -71 -39
-155 -87 -19 -11 -57 -32 -85 -47 -27 -16 -54 -31 -60 -36 -5 -4 -35 -21 -65
-37 -30 -17 -84 -47 -120 -68 -36 -21 -85 -49 -110 -63 -25 -14 -88 -50 -140
-80 -52 -30 -120 -68 -150 -85 -30 -16 -59 -33 -65 -37 -5 -5 -30 -19 -55 -32
-25 -14 -157 -89 -295 -168 -137 -79 -263 -151 -280 -160 -16 -10 -70 -40
-119 -69 -49 -28 -90 -51 -92 -51 -1 0 -68 -38 -149 -85 -80 -47 -148 -85
-150 -85 -1 0 -32 -17 -66 -38 -35 -22 -91 -54 -124 -72 -83 -46 -106 -59
-220 -125 -55 -32 -125 -72 -155 -88 -30 -16 -59 -33 -65 -37 -5 -4 -30 -19
-55 -32 -25 -14 -101 -58 -169 -97 -68 -39 -126 -71 -129 -71 -2 0 -16 -8 -30
-19 -15 -10 -56 -34 -92 -54 -36 -19 -103 -57 -150 -84 -47 -27 -105 -61 -130
-75 -25 -14 -88 -50 -140 -80 -52 -30 -115 -66 -140 -80 -25 -14 -286 -162
-580 -330 -294 -168 -551 -315 -570 -325 -19 -11 -430 -246 -912 -522 -483
-275 -880 -501 -883 -501 -3 0 -11 -5 -18 -10 -7 -6 -403 -234 -881 -507
l-870 -496 -45 24 c-26 13 -120 66 -211 117 -91 52 -190 108 -220 124 -30 17
-80 45 -111 64 -31 19 -59 34 -63 34 -4 0 -23 11 -44 23 -36 24 -455 261 -562
320 -30 17 -72 41 -92 54 -21 13 -40 23 -43 23 -3 0 -22 11 -43 23 -20 13 -58
36 -84 50 -27 15 -69 39 -95 54 -27 14 -115 64 -198 111 -82 47 -170 96 -195
110 -25 14 -74 42 -110 62 -36 21 -155 88 -265 150 -110 62 -241 137 -292 167
-51 29 -95 53 -98 53 -4 0 -19 8 -33 18 -15 11 -52 32 -82 49 -30 17 -71 39
-90 50 -87 49 -348 198 -380 216 -381 213 -529 301 -518 309 7 5 90 52 183
106 94 53 172 100 173 104 2 5 7 8 12 8 7 0 361 200 512 289 36 21 309 178
373 215 27 15 109 62 180 104 72 41 144 83 160 92 17 9 210 121 430 247 220
127 416 240 435 251 19 11 123 70 230 132 246 142 193 111 620 357 201 116
498 287 660 380 668 385 887 511 935 538 22 13 81 46 130 75 50 29 109 63 132
76 23 13 92 53 153 89 61 36 113 65 116 65 3 0 30 16 60 35 30 19 56 35 58 35
3 0 37 19 78 43 40 24 93 55 118 69 42 24 295 169 770 443 113 65 225 129 250
143 25 14 50 28 55 32 6 4 102 60 215 125 189 108 358 206 920 530 113 64 223
128 245 140 22 13 107 62 189 109 83 47 151 86 152 86 2 0 56 -31 121 -69z
m4160 -5060 l0 -2219 -136 -78 c-75 -43 -221 -127 -326 -187 -104 -60 -206
-119 -225 -129 -19 -11 -91 -53 -160 -93 -69 -40 -215 -124 -325 -187 -361
-208 -598 -344 -730 -420 -71 -42 -204 -118 -295 -170 -91 -52 -241 -139 -335
-193 -93 -54 -190 -109 -214 -123 -25 -14 -68 -38 -95 -55 -28 -16 -64 -37
-81 -47 -82 -46 -1046 -601 -1425 -820 -102 -59 -367 -212 -590 -340 -223
-128 -493 -283 -600 -345 -107 -62 -213 -123 -235 -135 -22 -12 -123 -70 -225
-129 -102 -59 -264 -153 -360 -208 -96 -56 -350 -202 -565 -326 -214 -123
-561 -322 -770 -442 -209 -120 -409 -235 -444 -257 -34 -21 -64 -38 -66 -38
-1 0 -80 -45 -175 -100 -95 -55 -177 -100 -181 -100 -5 0 -8 994 -7 2237 l3
2237 225 128 c124 71 248 142 275 157 28 15 66 37 85 48 45 26 169 97 212 121
18 11 402 230 853 487 451 258 834 476 850 485 17 10 120 69 230 132 110 63
207 117 215 121 8 4 29 15 45 26 31 18 710 406 799 456 28 15 73 41 100 58 28
17 80 46 116 65 36 19 72 41 81 48 8 8 18 14 21 14 3 0 170 94 373 210 202
116 372 210 376 210 5 0 9 5 9 10 0 6 5 10 11 10 5 0 51 24 102 54 51 30 108
63 127 73 19 11 179 102 355 203 176 100 340 194 365 208 115 65 822 468 880
502 36 21 225 129 420 240 195 111 400 228 455 260 55 32 116 67 135 77 55 31
376 215 474 272 49 28 90 51 91 51 2 0 65 36 141 80 76 44 139 80 140 80 0 0
1 -999 1 -2219z"/>
</g>
</svg>
