<?xml version="1.0" standalone="no"?>
<!DOCTYPE svg PUBLIC "-//W3C//DTD SVG 20010904//EN"
 "http://www.w3.org/TR/2001/REC-SVG-20010904/DTD/svg10.dtd">
<svg version="1.0" xmlns="http://www.w3.org/2000/svg"
 width="512.000000pt" height="512.000000pt" viewBox="0 0 512.000000 512.000000"
 preserveAspectRatio="xMidYMid meet">
<metadata>
Created by potrace 1.11, written by Peter Selinger 2001-2013
</metadata>
<g transform="translate(0.000000,512.000000) scale(0.100000,-0.100000)"
fill="#000000" stroke="none">
<path d="M800 5109 c-315 -53 -592 -271 -725 -572 l-26 -59 83 6 c46 4 103 9
128 11 25 3 83 7 130 10 47 3 105 8 130 10 25 2 81 7 125 10 44 3 100 8 125
11 25 2 92 6 150 9 142 6 156 -1 238 -131 34 -54 68 -110 76 -124 7 -14 54
-94 105 -178 51 -84 100 -168 110 -185 10 -18 132 -221 270 -452 138 -231 258
-431 266 -445 262 -439 493 -824 513 -855 15 -22 27 -41 28 -43 1 -2 22 2 45
8 24 7 51 14 59 15 8 2 101 24 205 49 272 66 540 131 685 165 167 40 352 84
508 122 70 17 134 32 142 34 38 8 76 18 82 22 5 2 -12 32 -35 66 -24 34 -157
222 -295 418 -139 196 -252 365 -252 376 0 21 23 46 54 57 15 5 189 35 526 91
19 3 46 7 60 10 27 5 64 11 125 21 22 3 69 11 105 17 91 17 121 11 168 -29 23
-19 125 -139 227 -266 l186 -231 -4 624 c-3 601 -4 627 -25 701 -99 356 -382
622 -752 704 -50 12 -3473 14 -3540 3z"/>
<path d="M898 4385 c-2 -2 -43 -6 -93 -9 -49 -4 -106 -9 -125 -11 -19 -2 -69
-7 -110 -10 -41 -4 -91 -8 -111 -10 -41 -4 -158 -15 -234 -21 -172 -13 -210
-17 -214 -20 -2 -2 -4 -30 -5 -61 0 -54 8 -74 108 -278 110 -223 218 -445 331
-680 34 -71 111 -229 170 -350 59 -121 133 -274 165 -340 32 -66 89 -185 128
-265 38 -80 106 -221 151 -315 44 -93 85 -177 90 -185 12 -21 80 -17 166 10
26 8 224 54 278 65 10 3 27 7 37 10 10 3 27 8 37 10 144 29 591 141 601 150
11 10 12 17 2 36 -7 13 -194 337 -416 720 -221 383 -412 711 -422 730 -11 19
-59 102 -107 184 -49 83 -94 161 -101 175 -8 14 -71 124 -142 244 -115 198
-130 220 -155 221 -15 1 -28 1 -29 0z"/>
<path d="M3 2225 c1 -781 6 -1431 10 -1445 5 -14 10 -36 13 -49 11 -53 47
-149 80 -211 141 -268 414 -466 699 -508 61 -9 3453 -10 3510 -1 279 44 534
224 688 487 35 60 88 200 102 272 11 58 18 500 8 500 -5 0 -65 -20 -132 -45
-102 -38 -594 -214 -1386 -497 -229 -82 -349 -117 -382 -112 -7 1 -23 2 -36 3
-56 3 -149 126 -294 389 -14 26 -63 112 -108 192 -45 80 -105 186 -132 235
-28 50 -59 106 -70 125 -11 19 -50 91 -88 160 -37 69 -70 127 -71 129 -3 3
-81 -11 -124 -23 -113 -32 -787 -207 -995 -259 -185 -46 -265 -36 -338 40 -23
25 -87 154 -219 443 -11 25 -40 87 -64 138 -24 52 -44 95 -44 97 0 1 -24 54
-54 116 -29 63 -63 134 -74 159 -11 25 -39 86 -62 135 -39 84 -252 544 -298
645 -11 25 -48 104 -81 175 l-61 130 3 -1420z"/>
<path d="M4530 3438 c-47 -9 -102 -20 -123 -23 -36 -6 -164 -29 -217 -39 -14
-3 -68 -12 -120 -21 -140 -23 -143 -24 -138 -43 3 -10 74 -112 158 -227 84
-116 198 -272 252 -347 54 -75 102 -139 106 -142 5 -3 107 20 227 51 121 30
225 56 230 57 6 2 56 13 113 26 l102 24 0 47 c0 44 -6 54 -92 164 -51 64 -139
176 -196 249 -57 72 -109 138 -115 146 -7 8 -25 31 -40 51 -15 20 -35 39 -45
41 -9 2 -55 -4 -102 -14z"/>
<path d="M5090 2539 c-14 -5 -74 -22 -135 -38 -302 -79 -355 -95 -351 -106 2
-6 105 -146 228 -311 123 -164 238 -319 256 -343 l32 -45 0 427 c0 235 -1 427
-2 426 -2 -1 -14 -5 -28 -10z"/>
<path d="M4205 2324 c-88 -24 -169 -45 -180 -48 -11 -2 -81 -20 -155 -39 -214
-57 -360 -95 -580 -151 -113 -30 -295 -77 -405 -106 -110 -29 -207 -53 -215
-55 -21 -4 -16 -17 41 -113 27 -46 49 -85 49 -87 0 -2 23 -40 50 -85 28 -45
50 -83 50 -84 0 -6 297 -512 334 -570 19 -30 44 -60 55 -66 17 -8 67 5 273 75
139 48 305 104 368 125 63 22 322 110 575 196 253 86 474 160 490 165 17 5 39
15 50 23 22 16 49 -25 -355 529 -185 254 -250 336 -265 335 -11 0 -92 -20
-180 -44z"/>
</g>
</svg>
